<svg xmlns="http://www.w3.org/2000/svg" version="1.1" xmlns:xlink="http://www.w3.org/1999/xlink" xmlns:svgjs="http://svgjs.dev/svgjs" width="128" height="128" viewBox="0 0 128 128"><g transform="matrix(0.8046875,0,0,0.8046875,12.760752631578946,12.732571777368413)"><svg viewBox="0 0 95 95" data-background-color="#0e947a" preserveAspectRatio="xMidYMid meet" height="128" width="128" xmlns="http://www.w3.org/2000/svg" xmlns:xlink="http://www.w3.org/1999/xlink"><g id="tight-bounds" transform="matrix(1,0,0,1,-0.24049999999999727,-0.21409356245999334)"><svg viewBox="0 0 95.481 95.42816219377" height="95.42816219377" width="95.481"><g><svg viewBox="0 0 95.481 95.42816219377" height="95.42816219377" width="95.481"><g><svg viewBox="0 0 95.481 95.42816219377" height="95.42816219377" width="95.481"><g id="textblocktransform"><svg viewBox="0 0 95.481 95.42816219377" height="95.42816219377" width="95.481" id="textblock"><g><svg viewBox="0 0 95.481 95.42816219377" height="95.42816219377" width="95.481"><g><svg viewBox="0 0 95.481 95.42816219377" height="95.42816219377" width="95.481"><g><svg xmlns="http://www.w3.org/2000/svg" xmlns:xlink="http://www.w3.org/1999/xlink" version="1.1" x="0" y="0" viewBox="5 5.0253906 90 89.9501953" enable-background="new 0 0 100 100" xml:space="preserve" height="95.42816219377" width="95.481" class="icon-icon-0" data-fill-palette-color="accent" id="icon-0"><path fill-rule="evenodd" clip-rule="evenodd" d="M81.8 18.175C90.601 26.976 95 37.575 95 49.976c0 12.434-4.399 23.033-13.2 31.799C73.034 90.575 62.434 94.976 50 94.976c-2.693 0-5.302-0.209-7.825-0.625 0.154-2.271 0.529-4.529 1.125-6.776 0.233-0.867 0.517-1.717 0.85-2.55 0.033-0.101 0.05-0.184 0.05-0.25L44.25 84.726c1.167-2.867 2.983-5.45 5.45-7.75H49.75c0.2-0.234 0.4-0.45 0.6-0.651H50.3c5.133-4.434 11.25-6.283 18.35-5.55 0.1 0 0.167 0 0.2 0 8-0.167 13.433-5.167 16.3-15 0-0.067 0.017-0.134 0.05-0.2C66.434 48.275 54.8 51.892 50.3 66.425c4.566-4.434 10.4-6.783 17.5-7.05C60.267 61.442 54 65.892 49 72.726c-0.066 0.066-0.117 0.133-0.15 0.199 0-0.033 0-0.066 0-0.1-0.033 0.033-0.05 0.066-0.05 0.1C48.534 73.125 48.267 73.358 48 73.625c-0.3 0.233-0.566 0.467-0.8 0.7-0.033 0-0.05 0.017-0.05 0.05C45.017 76.409 43.3 78.625 42 81.025c-2.7-2.733-4.816-5.917-6.35-9.549 0-0.066-0.017-0.117-0.05-0.151-0.066-0.1-0.133-0.217-0.2-0.349-0.1-0.301-0.2-0.584-0.3-0.851 11.767-14.267 11.467-32.8-0.9-55.6-12.934 9.7-19.867 21.116-20.8 34.25-0.333 8.833 4.633 15.816 14.9 20.951C26.7 62.358 27.017 54.392 29.25 45.825c0 0.033 0 0.066 0 0.1-1.066 9.867-0.283 18.316 2.35 25.35 0.2 0.333 0.367 0.7 0.5 1.1 0.067 0.167 0.15 0.366 0.25 0.601 1.9 4.467 4.583 8.333 8.05 11.599-0.367 0.967-0.667 1.967-0.9 3-0.479 1.986-0.796 3.995-0.95 6.026-7.632-1.916-14.433-5.857-20.4-11.826C9.383 73.009 5 62.409 5 49.976c0-12.4 4.383-23 13.15-31.801C26.95 9.409 37.567 5.025 50 5.025 62.434 5.025 73.034 9.409 81.8 18.175z" fill="#000000" data-fill-palette-color="accent"></path></svg></g></svg></g></svg></g></svg></g></svg></g></svg></g><defs></defs></svg><rect width="95.481" height="95.42816219377" fill="none" stroke="none" visibility="hidden"></rect></g></svg></g></svg>